# xmcd CD database file
#
# Track frame offsets:
#	150
#	9375
#	19685
#	32325
#	44495
#	58272
#	71475
#	85202
#	94042
#	105022
#
# Disc length: 1551 seconds
#
# Revision: 1
# Processed by: cddbd v1.5.2PL0 Copyright (c) Steve Scherf et al.
# Submitted via: jetAudio 7
#
DISCID=6d060d0a
DTITLE=Chet Atkins - Inducted Into The Hall Of Fame 1973
DYEAR=1900
DGENRE=Country
TTITLE0=Yakety Axe
TTITLE1=Mr. Sandman
TTITLE2=Petite Waltz
TTITLE3=Rocky Top
TTITLE4=So Rare
TTITLE5=After Midnight
TTITLE6=How High The Moon 
TTITLE7=The Poor Peolpe oOf Paris (Jean's Song)
TTITLE8=Walk Don't Run
TTITLE9=Amazing Grace
EXTD=
EXTT0=
EXTT1=
EXTT2=
EXTT3=
EXTT4=
EXTT5=
EXTT6=
EXTT7=
EXTT8=
EXTT9=
PLAYORDER=
